<svg xmlns="http://www.w3.org/2000/svg" width="300" height="200" viewBox="0 0 300 200" version="1.1"><path d="M 137 46.609 C 127.946 48.637, 115.809 54.899, 116.282 57.299 C 116.402 57.908, 115.737 58.428, 114.804 58.453 C 105.608 58.707, 86.767 107, 95.864 107 C 96.339 107, 97.020 109.129, 97.377 111.731 C 99.559 127.653, 116.815 145.388, 134.088 149.459 C 141.069 151.105, 147.167 151.511, 143.525 150.088 C 142.284 149.603, 145.259 149.102, 151.525 148.741 C 157.147 148.417, 163.136 147.469, 165.250 146.570 C 167.313 145.692, 169 145.408, 169 145.940 C 169 146.943, 162.990 148.926, 159.500 149.073 C 158.383 149.121, 158.064 149.385, 158.779 149.672 C 160.835 150.499, 169.281 148.083, 172 145.891 C 174.500 143.875, 174.500 143.875, 172 144.562 C 170.625 144.939, 169.824 144.906, 170.220 144.487 C 170.616 144.069, 172.466 143.605, 174.331 143.457 C 176.234 143.306, 178.790 142.160, 180.159 140.844 C 181.500 139.555, 184.262 137.027, 186.298 135.226 C 188.334 133.425, 190 131.597, 190 131.164 C 190 130.731, 190.787 129.505, 191.750 128.439 C 203.840 115.046, 203.856 81.725, 191.779 68.561 C 190.800 67.495, 190 66.269, 190 65.836 C 190 65.403, 188.334 63.575, 186.298 61.774 C 184.262 59.973, 181.615 57.560, 180.415 56.412 C 171.648 48.022, 151.253 43.417, 137 46.609 M 164 53.069 C 164 53.512, 166.237 55.093, 168.971 56.581 C 171.705 58.069, 173.706 59.667, 173.419 60.132 C 173.131 60.597, 171.907 60.354, 170.698 59.593 C 158.693 52.027, 137.079 52.005, 125.568 59.548 C 124.343 60.350, 123.039 60.705, 122.670 60.337 C 122.302 59.968, 122 60.408, 122 61.314 C 122 62.240, 120.899 63.238, 119.487 63.593 C 118.105 63.939, 116.643 64.736, 116.237 65.362 C 115.832 65.988, 114.610 66.993, 113.523 67.595 C 112.435 68.197, 111.310 69.686, 111.023 70.904 C 110.735 72.122, 110.077 73.204, 109.559 73.309 C 109.042 73.414, 108.472 74.850, 108.292 76.500 C 108.113 78.150, 107.523 79.650, 106.983 79.833 C 106.442 80.017, 106 81.678, 106 83.524 C 106 85.371, 105.550 87.160, 105 87.500 C 104.450 87.840, 104 89.468, 104 91.118 C 104 92.768, 103.601 93.872, 103.114 93.570 C 102.068 92.924, 101.033 96.300, 101.014 100.417 C 100.996 104.205, 102.102 103.048, 103.077 98.261 C 103.582 95.778, 103.726 97.559, 103.502 103.500 C 103.315 108.450, 102.830 113.583, 102.423 114.906 C 101.879 116.680, 102.007 117.114, 102.909 116.556 C 103.628 116.112, 104.711 116.563, 105.535 117.650 C 106.791 119.308, 106.940 119.325, 106.968 117.809 C 106.986 116.879, 106.604 115.873, 106.119 115.574 C 105.635 115.274, 105.025 113.912, 104.764 112.545 C 104.503 111.179, 104.674 110.298, 105.144 110.589 C 105.615 110.880, 106 111.965, 106 113 C 106 114.035, 106.492 115.186, 107.094 115.558 C 107.696 115.930, 107.986 117.293, 107.739 118.587 C 107.491 119.881, 107.623 120.733, 108.032 120.480 C 108.441 120.227, 110.636 122.485, 112.910 125.497 C 115.184 128.509, 118.367 131.951, 119.983 133.145 C 121.599 134.340, 122.645 135.766, 122.306 136.314 C 121.958 136.876, 122.197 136.996, 122.855 136.590 C 123.495 136.194, 125.145 136.756, 126.521 137.838 C 127.897 138.920, 131.380 140.332, 134.262 140.975 C 137.143 141.618, 140.400 142.561, 141.500 143.072 C 142.708 143.632, 148.650 143.661, 156.500 143.145 C 163.650 142.675, 167.475 142.180, 165 142.045 C 161.795 141.871, 161.076 141.594, 162.500 141.084 C 168.533 138.921, 171 137.711, 171 136.914 C 171 136.424, 172.012 136.131, 173.250 136.262 C 174.609 136.406, 175.401 136.005, 175.250 135.250 C 175.113 134.563, 175.563 134.113, 176.250 134.250 C 176.938 134.388, 177.388 133.938, 177.250 133.250 C 177.113 132.563, 177.563 131.986, 178.250 131.969 C 179.499 131.938, 186.500 123.359, 186.500 121.859 C 186.500 121.422, 187.183 120.263, 188.018 119.282 C 188.852 118.302, 189.977 115.700, 190.518 113.500 C 191.105 111.110, 192.087 109.500, 192.959 109.500 C 194.568 109.500, 195.888 104.870, 196.107 98.459 C 196.302 92.747, 194.967 83.902, 193.999 84.500 C 193.552 84.777, 193.397 84.197, 193.655 83.212 C 193.920 82.197, 193.230 80.613, 192.062 79.556 C 190.928 78.530, 190 77.069, 190 76.310 C 190 73.294, 186.851 69.999, 184.526 70.583 C 182.201 71.166, 179.733 67.922, 181.943 67.186 C 182.524 66.992, 183 66.391, 183 65.849 C 183 65.308, 182.098 65.152, 180.995 65.502 C 179.663 65.924, 178.788 65.612, 178.388 64.569 C 178.057 63.706, 177.122 63, 176.310 63 C 175.498 63, 175.032 62.438, 175.274 61.750 C 175.517 61.063, 176.454 60.563, 177.358 60.639 C 180.415 60.897, 178.960 58.514, 174.354 55.717 C 169.849 52.981, 164 51.485, 164 53.069 M 126.639 79.104 C 124.900 81.587, 133.701 91.544, 139.442 93.589 C 141.905 94.467, 143.237 97.079, 140.809 96.270 C 140.429 96.143, 140.593 97.403, 141.174 99.071 C 141.756 100.738, 141.954 102.379, 141.616 102.718 C 141.277 103.056, 141 102.635, 141 101.782 C 141 100.629, 140.256 100.908, 138.107 102.865 C 136.515 104.314, 135.417 105.838, 135.666 106.250 C 136.453 107.556, 141 107.065, 141 105.673 C 141 104.768, 141.953 104.486, 144 104.787 C 145.801 105.051, 147 104.782, 147 104.113 C 147 103.501, 147.900 103, 149 103 C 150.100 103, 151 102.550, 151 102 C 151 101.450, 151.338 101.053, 151.750 101.118 C 154.575 101.564, 155.773 100.847, 155.290 99 C 154.767 97.003, 152 96.135, 152 97.969 C 152 98.501, 151.325 98.678, 150.500 98.362 C 149.675 98.045, 149 96.934, 149 95.893 C 149 94.852, 148.550 94, 148 94 C 147.450 94, 147 93.448, 147 92.774 C 147 86.873, 129.450 75.091, 126.639 79.104 M 151.734 104.250 C 151.470 104.938, 151.085 105.949, 150.877 106.499 C 150.670 107.048, 151.259 107.498, 152.187 107.499 C 153.115 107.499, 156.849 110.387, 160.486 113.915 C 166.711 119.955, 167.198 120.231, 168.799 118.629 C 170.675 116.752, 168.869 114.519, 166.250 115.479 C 165.548 115.736, 165 115.161, 165 114.169 C 165 111.914, 163.099 110, 160.859 110 C 159.901 110, 158.797 109.480, 158.405 108.845 C 157.962 108.130, 158.130 107.962, 158.845 108.405 C 160.538 109.450, 160.255 107.457, 158.506 106.005 C 157.684 105.323, 155.925 104.972, 154.597 105.226 C 152.867 105.557, 152.329 105.307, 152.698 104.344 C 152.982 103.605, 152.989 103, 152.714 103 C 152.439 103, 151.998 103.563, 151.734 104.250" stroke="none" fill="#f8f8f8" fill-rule="evenodd"/><path d="M 164 53.069 C 164 53.512, 166.237 55.093, 168.971 56.581 C 171.705 58.069, 173.706 59.667, 173.419 60.132 C 173.131 60.597, 171.907 60.354, 170.698 59.593 C 158.693 52.027, 137.079 52.005, 125.568 59.548 C 124.343 60.350, 123.039 60.705, 122.670 60.337 C 122.302 59.968, 122 60.408, 122 61.314 C 122 62.240, 120.899 63.238, 119.487 63.593 C 118.105 63.939, 116.643 64.736, 116.237 65.362 C 115.832 65.988, 114.610 66.993, 113.523 67.595 C 112.435 68.197, 111.310 69.686, 111.023 70.904 C 110.735 72.122, 110.077 73.204, 109.559 73.309 C 109.042 73.414, 108.472 74.850, 108.292 76.500 C 108.113 78.150, 107.523 79.650, 106.983 79.833 C 106.442 80.017, 106 81.678, 106 83.524 C 106 85.371, 105.550 87.160, 105 87.500 C 104.450 87.840, 104 89.468, 104 91.118 C 104 92.768, 103.601 93.872, 103.114 93.570 C 102.068 92.924, 101.033 96.300, 101.014 100.417 C 100.996 104.205, 102.102 103.048, 103.077 98.261 C 103.582 95.778, 103.726 97.559, 103.502 103.500 C 103.315 108.450, 102.830 113.583, 102.423 114.906 C 101.879 116.680, 102.007 117.114, 102.909 116.556 C 103.628 116.112, 104.711 116.563, 105.535 117.650 C 106.791 119.308, 106.940 119.325, 106.968 117.809 C 106.986 116.879, 106.604 115.873, 106.119 115.574 C 105.635 115.274, 105.025 113.912, 104.764 112.545 C 104.503 111.179, 104.674 110.298, 105.144 110.589 C 105.615 110.880, 106 111.965, 106 113 C 106 114.035, 106.492 115.186, 107.094 115.558 C 107.696 115.930, 107.986 117.293, 107.739 118.587 C 107.491 119.881, 107.623 120.733, 108.031 120.481 C 109.531 119.554, 111.391 123.286, 111.201 126.841 C 111.044 129.800, 111.208 130.163, 112.057 128.742 C 112.635 127.775, 112.787 126.465, 112.395 125.831 C 112.003 125.196, 114.085 127.112, 117.021 130.089 C 119.957 133.065, 122.267 135.871, 122.155 136.324 C 122.042 136.778, 122.416 136.861, 122.985 136.509 C 123.554 136.158, 125.145 136.756, 126.521 137.838 C 127.897 138.920, 131.380 140.332, 134.262 140.975 C 137.143 141.618, 140.400 142.561, 141.500 143.072 C 142.708 143.632, 148.650 143.661, 156.500 143.145 C 163.650 142.675, 167.475 142.180, 165 142.045 C 161.795 141.871, 161.076 141.594, 162.500 141.084 C 168.533 138.921, 171 137.711, 171 136.914 C 171 136.424, 172.012 136.131, 173.250 136.262 C 174.609 136.406, 175.401 136.005, 175.250 135.250 C 175.113 134.563, 175.563 134.113, 176.250 134.250 C 176.938 134.388, 177.388 133.938, 177.250 133.250 C 177.113 132.563, 177.563 131.986, 178.250 131.969 C 179.499 131.938, 186.500 123.359, 186.500 121.859 C 186.500 121.422, 187.287 120.145, 188.250 119.021 C 189.213 117.897, 190 116.108, 190 115.046 C 190 113.653, 190.557 113.222, 192 113.500 C 193.312 113.753, 194 113.347, 194 112.320 C 194 110.993, 193.755 110.959, 192.385 112.096 C 190.982 113.260, 190.819 113.177, 191.148 111.468 C 191.357 110.386, 192.178 109.500, 192.973 109.500 C 194.566 109.500, 195.889 104.843, 196.107 98.459 C 196.302 92.747, 194.967 83.902, 193.999 84.500 C 193.552 84.777, 193.397 84.197, 193.655 83.212 C 193.920 82.197, 193.230 80.613, 192.062 79.556 C 190.928 78.530, 190 77.069, 190 76.310 C 190 73.294, 186.851 69.999, 184.526 70.583 C 182.201 71.166, 179.733 67.922, 181.943 67.186 C 182.524 66.992, 183 66.391, 183 65.849 C 183 65.308, 182.098 65.152, 180.995 65.502 C 179.663 65.924, 178.788 65.612, 178.388 64.569 C 178.057 63.706, 177.122 63, 176.310 63 C 175.498 63, 175.032 62.438, 175.274 61.750 C 175.517 61.063, 176.454 60.563, 177.358 60.639 C 180.415 60.897, 178.960 58.514, 174.354 55.717 C 169.849 52.981, 164 51.485, 164 53.069 M 133.347 58.345 C 103.492 69.663, 96.100 108.337, 119.666 129.931 C 150.958 158.605, 199.753 128.756, 189.341 87.308 C 183.449 63.851, 156.118 49.714, 133.347 58.345 M 126.196 76.298 C 121.947 80.682, 121.843 80.397, 131 89.500 C 140.741 99.184, 140.778 97.775, 130.510 107.990 C 122.020 116.436, 122.020 116.436, 125.713 120.218 C 130.445 125.065, 129.513 125.403, 139.397 115.250 C 147.916 106.500, 147.916 106.500, 156.961 115.482 C 166.006 124.464, 166.006 124.464, 170.051 120.419 C 174.097 116.374, 174.097 116.374, 165.548 107.989 C 155.186 97.825, 155.189 99.359, 165.514 88.986 C 174.028 80.433, 174.028 80.433, 170 76.500 C 165.973 72.568, 165.973 72.568, 156.945 81.534 C 147.916 90.500, 147.916 90.500, 139.397 81.750 C 129.601 71.688, 130.360 72.001, 126.196 76.298 M 126.639 79.104 C 124.900 81.587, 133.701 91.544, 139.442 93.589 C 141.905 94.467, 143.237 97.079, 140.809 96.270 C 140.429 96.143, 140.593 97.403, 141.174 99.071 C 141.756 100.738, 141.954 102.379, 141.616 102.718 C 141.277 103.056, 141 102.635, 141 101.782 C 141 100.629, 140.256 100.908, 138.107 102.865 C 136.515 104.314, 135.417 105.838, 135.666 106.250 C 136.453 107.556, 141 107.065, 141 105.673 C 141 104.768, 141.953 104.486, 144 104.787 C 145.801 105.051, 147 104.782, 147 104.113 C 147 103.501, 147.900 103, 149 103 C 150.100 103, 151 102.550, 151 102 C 151 101.450, 151.338 101.053, 151.750 101.118 C 154.575 101.564, 155.773 100.847, 155.290 99 C 154.767 97.003, 152 96.135, 152 97.969 C 152 98.501, 151.325 98.678, 150.500 98.362 C 149.675 98.045, 149 96.934, 149 95.893 C 149 94.852, 148.550 94, 148 94 C 147.450 94, 147 93.448, 147 92.774 C 147 86.873, 129.450 75.091, 126.639 79.104 M 151.734 104.250 C 151.470 104.938, 151.085 105.949, 150.877 106.499 C 150.670 107.048, 151.259 107.498, 152.187 107.499 C 153.115 107.499, 156.849 110.387, 160.486 113.915 C 166.711 119.955, 167.198 120.231, 168.799 118.629 C 170.675 116.752, 168.869 114.519, 166.250 115.479 C 165.548 115.736, 165 115.161, 165 114.169 C 165 111.914, 163.099 110, 160.859 110 C 159.901 110, 158.797 109.480, 158.405 108.845 C 157.962 108.130, 158.130 107.962, 158.845 108.405 C 160.538 109.450, 160.255 107.457, 158.506 106.005 C 157.684 105.323, 155.925 104.972, 154.597 105.226 C 152.867 105.557, 152.329 105.307, 152.698 104.344 C 152.982 103.605, 152.989 103, 152.714 103 C 152.439 103, 151.998 103.563, 151.734 104.250" stroke="none" fill="#f7f5f4" fill-rule="evenodd"/><path d="M 133.347 58.345 C 103.492 69.663, 96.100 108.337, 119.666 129.931 C 150.958 158.605, 199.753 128.756, 189.341 87.308 C 183.449 63.851, 156.118 49.714, 133.347 58.345 M 126.196 76.298 C 121.947 80.682, 121.843 80.397, 131 89.500 C 140.741 99.184, 140.778 97.775, 130.510 107.990 C 122.020 116.436, 122.020 116.436, 125.713 120.218 C 130.445 125.065, 129.513 125.403, 139.397 115.250 C 147.916 106.500, 147.916 106.500, 156.961 115.482 C 166.006 124.464, 166.006 124.464, 170.051 120.419 C 174.097 116.374, 174.097 116.374, 165.548 107.989 C 155.186 97.825, 155.189 99.359, 165.514 88.986 C 174.028 80.433, 174.028 80.433, 170 76.500 C 165.973 72.568, 165.973 72.568, 156.945 81.534 C 147.916 90.500, 147.916 90.500, 139.397 81.750 C 129.601 71.688, 130.360 72.001, 126.196 76.298" stroke="none" fill="#ca0013" fill-rule="evenodd"/><path d="M 142.500 33.649 C 103.985 36.260, 60.708 58.683, 28.250 92.845 C 23.070 98.297, 23.049 98.735, 27.750 103.740 C 45.773 122.929, 73.067 141.906, 99.196 153.415 C 150.524 176.022, 210.813 159.479, 264.250 108.124 C 274.854 97.933, 274.823 99.114, 264.750 89.393 C 225.812 51.816, 180.344 31.083, 142.500 33.649 M 143.500 44.809 C 92.791 50.219, 76.815 115.290, 119.275 143.482 C 151.312 164.753, 195.612 144.622, 201.205 106.251 C 206.132 72.448, 176.834 41.253, 143.500 44.809" stroke="none" fill="#000000" fill-rule="evenodd"/></svg>