<?xml version="1.0" encoding="UTF-8" standalone="no"?>
<svg
   xmlns:dc="http://purl.org/dc/elements/1.1/"
   xmlns:cc="http://creativecommons.org/ns#"
   xmlns:rdf="http://www.w3.org/1999/02/22-rdf-syntax-ns#"
   xmlns:svg="http://www.w3.org/2000/svg"
   xmlns="http://www.w3.org/2000/svg"
   xmlns:sodipodi="http://sodipodi.sourceforge.net/DTD/sodipodi-0.dtd"
   xmlns:inkscape="http://www.inkscape.org/namespaces/inkscape"
   version="1.1"
   width="360"
   height="185"
   id="svg932"
   sodipodi:docname="2019.svg"
   inkscape:version="0.92.4 (5da689c313, 2019-01-14)">
  <metadata
     id="metadata938">
    <rdf:RDF>
      <cc:Work
         rdf:about="">
        <dc:format>image/svg+xml</dc:format>
        <dc:type
           rdf:resource="http://purl.org/dc/dcmitype/StillImage" />
        <dc:title></dc:title>
      </cc:Work>
    </rdf:RDF>
  </metadata>
  <defs
     id="defs936" />
  <sodipodi:namedview
     pagecolor="#ffffff"
     bordercolor="#666666"
     borderopacity="1"
     objecttolerance="10"
     gridtolerance="10"
     guidetolerance="10"
     inkscape:pageopacity="0"
     inkscape:pageshadow="2"
     inkscape:window-width="1920"
     inkscape:window-height="986"
     id="namedview934"
     showgrid="false"
     inkscape:zoom="2.5513514"
     inkscape:cx="195.33772"
     inkscape:cy="114.94542"
     inkscape:window-x="-11"
     inkscape:window-y="-11"
     inkscape:window-maximized="1"
     inkscape:current-layer="svg932" />
  <!-- Created with the Wikimedia parliament diagram creator (http://tools.wmflabs.org/parliamentdiagram/parliamentinputform.html) -->
  <g
     id="g930">
    <text
       x="175"
       y="175"
       style="font-size:36px;font-weight:bold;text-align:center;text-anchor:middle;font-family:Sans-serif"
       id="text2">460</text>
    <g
       style="fill:#9B9B9B; stroke:none"
       id="MN">
      <circle
         cx="9.58"
         cy="176.36"
         r="3.64"
         id="circle4" />
    </g>
    <g
       style="fill:#102440; stroke:none"
       id="KWIN">
      <circle
         cx="18.68"
         cy="176.36"
         r="3.64"
         id="circle7" />
      <circle
         cx="27.77"
         cy="176.36"
         r="3.64"
         id="circle9" />
      <circle
         cx="36.86"
         cy="176.36"
         r="3.64"
         id="circle11" />
      <circle
         cx="45.96"
         cy="176.36"
         r="3.64"
         id="circle13" />
      <circle
         cx="55.05"
         cy="176.36"
         r="3.64"
         id="circle15" />
      <circle
         cx="64.15"
         cy="176.36"
         r="3.64"
         id="circle17" />
      <circle
         cx="73.24"
         cy="176.37"
         r="3.64"
         id="circle19" />
      <circle
         cx="82.34"
         cy="176.37"
         r="3.64"
         id="circle21" />
      <circle
         cx="91.44"
         cy="176.37"
         r="3.64"
         id="circle23" />
      <circle
         cx="100.54"
         cy="176.37"
         r="3.64"
         id="circle25" />
      <circle
         cx="10.06"
         cy="166.77"
         r="3.64"
         id="circle27" />
    </g>
    <g
       style="fill:#1BB100; stroke:none"
       id="PSL">
      <circle
         cx="19.16"
         cy="166.95"
         r="3.64"
         id="circle30" />
      <circle
         cx="28.29"
         cy="166.96"
         r="3.64"
         id="circle32" />
      <circle
         cx="37.41"
         cy="166.97"
         r="3.64"
         id="circle34" />
      <circle
         cx="46.54"
         cy="166.98"
         r="3.64"
         id="circle36" />
      <circle
         cx="55.68"
         cy="166.99"
         r="3.64"
         id="circle38" />
      <circle
         cx="64.82"
         cy="167.00"
         r="3.64"
         id="circle40" />
      <circle
         cx="73.97"
         cy="167.02"
         r="3.64"
         id="circle42" />
      <circle
         cx="83.14"
         cy="167.04"
         r="3.64"
         id="circle44" />
      <circle
         cx="11.07"
         cy="157.22"
         r="3.64"
         id="circle46" />
      <circle
         cx="20.20"
         cy="157.58"
         r="3.64"
         id="circle48" />
      <circle
         cx="92.31"
         cy="167.06"
         r="3.64"
         id="circle50" />
      <circle
         cx="29.38"
         cy="157.60"
         r="3.64"
         id="circle52" />
      <circle
         cx="38.58"
         cy="157.62"
         r="3.64"
         id="circle54" />
      <circle
         cx="47.78"
         cy="157.65"
         r="3.64"
         id="circle56" />
      <circle
         cx="101.57"
         cy="166.72"
         r="3.64"
         id="circle58" />
      <circle
         cx="57.01"
         cy="157.68"
         r="3.64"
         id="circle60" />
      <circle
         cx="12.62"
         cy="147.75"
         r="3.64"
         id="circle62" />
      <circle
         cx="66.25"
         cy="157.72"
         r="3.64"
         id="circle64" />
      <circle
         cx="21.78"
         cy="148.29"
         r="3.64"
         id="circle66" />
      <circle
         cx="31.06"
         cy="148.33"
         r="3.64"
         id="circle68" />
      <circle
         cx="75.52"
         cy="157.77"
         r="3.64"
         id="circle70" />
      <circle
         cx="40.35"
         cy="148.38"
         r="3.64"
         id="circle72" />
      <circle
         cx="84.82"
         cy="157.83"
         r="3.64"
         id="circle74" />
      <circle
         cx="49.68"
         cy="148.44"
         r="3.64"
         id="circle76" />
      <circle
         cx="14.71"
         cy="138.37"
         r="3.64"
         id="circle78" />
      <circle
         cx="94.16"
         cy="157.90"
         r="3.64"
         id="circle80" />
      <circle
         cx="59.03"
         cy="148.51"
         r="3.64"
         id="circle82" />
      <circle
         cx="23.90"
         cy="139.10"
         r="3.64"
         id="circle84" />
      <circle
         cx="33.30"
         cy="139.18"
         r="3.64"
         id="circle86" />
      <circle
         cx="68.43"
         cy="148.59"
         r="3.64"
         id="circle88" />
    </g>
    <g
       style="fill:#E2001A; stroke:none"
       id="SLD">
      <circle
         cx="42.73"
         cy="139.27"
         r="3.64"
         id="circle91" />
      <circle
         cx="103.77"
         cy="157.28"
         r="3.64"
         id="circle93" />
      <circle
         cx="77.87"
         cy="148.69"
         r="3.64"
         id="circle95" />
      <circle
         cx="17.31"
         cy="129.13"
         r="3.64"
         id="circle97" />
      <circle
         cx="52.21"
         cy="139.38"
         r="3.64"
         id="circle99" />
      <circle
         cx="26.56"
         cy="130.06"
         r="3.64"
         id="circle101" />
      <circle
         cx="87.38"
         cy="148.82"
         r="3.64"
         id="circle103" />
      <circle
         cx="61.74"
         cy="139.51"
         r="3.64"
         id="circle105" />
      <circle
         cx="36.11"
         cy="130.19"
         r="3.64"
         id="circle107" />
      <circle
         cx="45.71"
         cy="130.34"
         r="3.64"
         id="circle109" />
      <circle
         cx="71.34"
         cy="139.66"
         r="3.64"
         id="circle111" />
      <circle
         cx="96.97"
         cy="148.98"
         r="3.64"
         id="circle113" />
      <circle
         cx="20.44"
         cy="120.05"
         r="3.64"
         id="circle115" />
      <circle
         cx="29.74"
         cy="121.18"
         r="3.64"
         id="circle117" />
      <circle
         cx="55.37"
         cy="130.52"
         r="3.64"
         id="circle119" />
      <circle
         cx="81.01"
         cy="139.85"
         r="3.64"
         id="circle121" />
      <circle
         cx="39.46"
         cy="121.38"
         r="3.64"
         id="circle123" />
      <circle
         cx="65.12"
         cy="130.73"
         r="3.64"
         id="circle125" />
      <circle
         cx="107.10"
         cy="148.17"
         r="3.64"
         id="circle127" />
      <circle
         cx="24.07"
         cy="111.16"
         r="3.64"
         id="circle129" />
      <circle
         cx="49.26"
         cy="121.62"
         r="3.64"
         id="circle131" />
      <circle
         cx="90.79"
         cy="140.10"
         r="3.64"
         id="circle133" />
      <circle
         cx="33.43"
         cy="112.51"
         r="3.64"
         id="circle135" />
      <circle
         cx="74.96"
         cy="131.00"
         r="3.64"
         id="circle137" />
      <circle
         cx="59.15"
         cy="121.90"
         r="3.64"
         id="circle139" />
      <circle
         cx="43.35"
         cy="112.81"
         r="3.64"
         id="circle141" />
      <circle
         cx="100.70"
         cy="140.41"
         r="3.64"
         id="circle143" />
      <circle
         cx="28.19"
         cy="102.49"
         r="3.64"
         id="circle145" />
      <circle
         cx="84.92"
         cy="131.33"
         r="3.64"
         id="circle147" />
      <circle
         cx="69.14"
         cy="122.24"
         r="3.64"
         id="circle149" />
      <circle
         cx="53.38"
         cy="113.16"
         r="3.64"
         id="circle151" />
      <circle
         cx="37.62"
         cy="104.07"
         r="3.64"
         id="circle153" />
      <circle
         cx="95.02"
         cy="131.74"
         r="3.64"
         id="circle155" />
      <circle
         cx="79.27"
         cy="122.66"
         r="3.64"
         id="circle157" />
      <circle
         cx="63.52"
         cy="113.57"
         r="3.64"
         id="circle159" />
      <circle
         cx="47.77"
         cy="104.49"
         r="3.64"
         id="circle161" />
      <circle
         cx="32.80"
         cy="94.06"
         r="3.64"
         id="circle163" />
      <circle
         cx="111.52"
         cy="139.53"
         r="3.64"
         id="circle165" />
      <circle
         cx="42.30"
         cy="95.88"
         r="3.64"
         id="circle167" />
      <circle
         cx="58.05"
         cy="104.98"
         r="3.64"
         id="circle169" />
      <circle
         cx="73.80"
         cy="114.08"
         r="3.64"
         id="circle171" />
      <circle
         cx="89.55"
         cy="123.18"
         r="3.64"
         id="circle173" />
      <circle
         cx="105.31"
         cy="132.28"
         r="3.64"
         id="circle175" />
      <circle
         cx="52.69"
         cy="96.45"
         r="3.64"
         id="circle177" />
      <circle
         cx="37.87"
         cy="85.91"
         r="3.64"
         id="circle179" />
      <circle
         cx="68.46"
         cy="105.57"
         r="3.64"
         id="circle181" />
      <circle
         cx="84.24"
         cy="114.69"
         r="3.64"
         id="circle183" />
      <circle
         cx="47.44"
         cy="87.99"
         r="3.64"
         id="circle185" />
      <circle
         cx="100.03"
         cy="123.83"
         r="3.64"
         id="circle187" />
    </g>
    <g
       style="fill:#FCA241; stroke:none"
       id="KO">
      <circle
         cx="63.24"
         cy="97.13"
         r="3.64"
         id="circle190" />
      <circle
         cx="79.05"
         cy="106.28"
         r="3.64"
         id="circle192" />
      <circle
         cx="43.39"
         cy="78.05"
         r="3.64"
         id="circle194" />
      <circle
         cx="58.10"
         cy="88.74"
         r="3.64"
         id="circle196" />
      <circle
         cx="94.88"
         cy="115.46"
         r="3.64"
         id="circle198" />
      <circle
         cx="116.95"
         cy="131.50"
         r="3.64"
         id="circle200" />
      <circle
         cx="73.96"
         cy="97.93"
         r="3.64"
         id="circle202" />
      <circle
         cx="53.04"
         cy="80.40"
         r="3.64"
         id="circle204" />
      <circle
         cx="110.75"
         cy="124.68"
         r="3.64"
         id="circle206" />
      <circle
         cx="89.84"
         cy="107.16"
         r="3.64"
         id="circle208" />
      <circle
         cx="68.94"
         cy="89.63"
         r="3.64"
         id="circle210" />
      <circle
         cx="49.35"
         cy="70.52"
         r="3.64"
         id="circle212" />
      <circle
         cx="63.98"
         cy="81.38"
         r="3.64"
         id="circle214" />
      <circle
         cx="84.87"
         cy="98.91"
         r="3.64"
         id="circle216" />
      <circle
         cx="105.77"
         cy="116.44"
         r="3.64"
         id="circle218" />
      <circle
         cx="59.07"
         cy="73.16"
         r="3.64"
         id="circle220" />
      <circle
         cx="79.97"
         cy="90.70"
         r="3.64"
         id="circle222" />
      <circle
         cx="100.87"
         cy="108.25"
         r="3.64"
         id="circle224" />
      <circle
         cx="75.12"
         cy="82.53"
         r="3.64"
         id="circle226" />
      <circle
         cx="55.72"
         cy="63.34"
         r="3.64"
         id="circle228" />
      <circle
         cx="96.03"
         cy="100.10"
         r="3.64"
         id="circle230" />
      <circle
         cx="70.30"
         cy="74.39"
         r="3.64"
         id="circle232" />
      <circle
         cx="123.32"
         cy="124.18"
         r="3.64"
         id="circle234" />
      <circle
         cx="116.96"
         cy="117.69"
         r="3.64"
         id="circle236" />
      <circle
         cx="91.24"
         cy="91.99"
         r="3.64"
         id="circle238" />
      <circle
         cx="65.52"
         cy="66.28"
         r="3.64"
         id="circle240" />
      <circle
         cx="86.48"
         cy="83.91"
         r="3.64"
         id="circle242" />
      <circle
         cx="112.19"
         cy="109.62"
         r="3.64"
         id="circle244" />
      <circle
         cx="62.49"
         cy="56.52"
         r="3.64"
         id="circle246" />
      <circle
         cx="81.75"
         cy="75.85"
         r="3.64"
         id="circle248" />
      <circle
         cx="107.47"
         cy="101.58"
         r="3.64"
         id="circle250" />
      <circle
         cx="77.04"
         cy="67.81"
         r="3.64"
         id="circle252" />
      <circle
         cx="72.35"
         cy="59.79"
         r="3.64"
         id="circle254" />
      <circle
         cx="102.77"
         cy="93.57"
         r="3.64"
         id="circle256" />
      <circle
         cx="98.10"
         cy="85.57"
         r="3.64"
         id="circle258" />
      <circle
         cx="69.63"
         cy="50.10"
         r="3.64"
         id="circle260" />
      <circle
         cx="93.44"
         cy="77.59"
         r="3.64"
         id="circle262" />
      <circle
         cx="88.80"
         cy="69.62"
         r="3.64"
         id="circle264" />
      <circle
         cx="123.87"
         cy="111.40"
         r="3.64"
         id="circle266" />
      <circle
         cx="84.18"
         cy="61.66"
         r="3.64"
         id="circle268" />
      <circle
         cx="79.56"
         cy="53.71"
         r="3.64"
         id="circle270" />
      <circle
         cx="130.54"
         cy="117.70"
         r="3.64"
         id="circle272" />
      <circle
         cx="119.24"
         cy="103.46"
         r="3.64"
         id="circle274" />
      <circle
         cx="114.63"
         cy="95.52"
         r="3.64"
         id="circle276" />
      <circle
         cx="110.02"
         cy="87.60"
         r="3.64"
         id="circle278" />
      <circle
         cx="77.12"
         cy="44.09"
         r="3.64"
         id="circle280" />
      <circle
         cx="105.43"
         cy="79.68"
         r="3.64"
         id="circle282" />
      <circle
         cx="100.84"
         cy="71.77"
         r="3.64"
         id="circle284" />
      <circle
         cx="96.26"
         cy="63.86"
         r="3.64"
         id="circle286" />
      <circle
         cx="91.68"
         cy="55.96"
         r="3.64"
         id="circle288" />
      <circle
         cx="87.10"
         cy="48.06"
         r="3.64"
         id="circle290" />
      <circle
         cx="84.94"
         cy="38.52"
         r="3.64"
         id="circle292" />
      <circle
         cx="131.41"
         cy="105.87"
         r="3.64"
         id="circle294" />
      <circle
         cx="126.84"
         cy="97.99"
         r="3.64"
         id="circle296" />
      <circle
         cx="122.29"
         cy="90.12"
         r="3.64"
         id="circle298" />
      <circle
         cx="117.73"
         cy="82.24"
         r="3.64"
         id="circle300" />
      <circle
         cx="113.17"
         cy="74.36"
         r="3.64"
         id="circle302" />
      <circle
         cx="108.62"
         cy="66.49"
         r="3.64"
         id="circle304" />
      <circle
         cx="104.07"
         cy="58.61"
         r="3.64"
         id="circle306" />
      <circle
         cx="99.52"
         cy="50.74"
         r="3.64"
         id="circle308" />
      <circle
         cx="94.97"
         cy="42.86"
         r="3.64"
         id="circle310" />
      <circle
         cx="138.49"
         cy="112.15"
         r="3.64"
         id="circle312" />
      <circle
         cx="93.06"
         cy="33.39"
         r="3.64"
         id="circle314" />
      <circle
         cx="103.12"
         cy="38.13"
         r="3.64"
         id="circle316" />
      <circle
         cx="107.66"
         cy="46.01"
         r="3.64"
         id="circle318" />
      <circle
         cx="112.21"
         cy="53.88"
         r="3.64"
         id="circle320" />
      <circle
         cx="116.75"
         cy="61.76"
         r="3.64"
         id="circle322" />
      <circle
         cx="121.30"
         cy="69.64"
         r="3.64"
         id="circle324" />
      <circle
         cx="125.85"
         cy="77.52"
         r="3.64"
         id="circle326" />
      <circle
         cx="130.39"
         cy="85.40"
         r="3.64"
         id="circle328" />
      <circle
         cx="134.94"
         cy="93.28"
         r="3.64"
         id="circle330" />
      <circle
         cx="101.45"
         cy="28.72"
         r="3.64"
         id="circle332" />
      <circle
         cx="139.48"
         cy="101.17"
         r="3.64"
         id="circle334" />
      <circle
         cx="111.53"
         cy="33.88"
         r="3.64"
         id="circle336" />
      <circle
         cx="116.09"
         cy="41.79"
         r="3.64"
         id="circle338" />
      <circle
         cx="120.64"
         cy="49.70"
         r="3.64"
         id="circle340" />
      <circle
         cx="147.05"
         cy="107.60"
         r="3.64"
         id="circle342" />
      <circle
         cx="110.09"
         cy="24.54"
         r="3.64"
         id="circle344" />
      <circle
         cx="125.20"
         cy="57.62"
         r="3.64"
         id="circle346" />
      <circle
         cx="129.76"
         cy="65.54"
         r="3.64"
         id="circle348" />
      <circle
         cx="134.32"
         cy="73.47"
         r="3.64"
         id="circle350" />
      <circle
         cx="138.88"
         cy="81.41"
         r="3.64"
         id="circle352" />
      <circle
         cx="143.44"
         cy="89.37"
         r="3.64"
         id="circle354" />
      <circle
         cx="120.18"
         cy="30.13"
         r="3.64"
         id="circle356" />
      <circle
         cx="124.76"
         cy="38.10"
         r="3.64"
         id="circle358" />
      <circle
         cx="148.01"
         cy="97.34"
         r="3.64"
         id="circle360" />
      <circle
         cx="118.96"
         cy="20.85"
         r="3.64"
         id="circle362" />
      <circle
         cx="129.33"
         cy="46.08"
         r="3.64"
         id="circle364" />
      <circle
         cx="133.92"
         cy="54.08"
         r="3.64"
         id="circle366" />
      <circle
         cx="138.50"
         cy="62.09"
         r="3.64"
         id="circle368" />
      <circle
         cx="143.09"
         cy="70.13"
         r="3.64"
         id="circle370" />
      <circle
         cx="129.04"
         cy="26.90"
         r="3.64"
         id="circle372" />
      <circle
         cx="128.02"
         cy="17.66"
         r="3.64"
         id="circle374" />
      <circle
         cx="133.64"
         cy="34.96"
         r="3.64"
         id="circle376" />
      <circle
         cx="147.68"
         cy="78.19"
         r="3.64"
         id="circle378" />
      <circle
         cx="156.11"
         cy="104.13"
         r="3.64"
         id="circle380" />
      <circle
         cx="138.24"
         cy="43.04"
         r="3.64"
         id="circle382" />
      <circle
         cx="152.28"
         cy="86.29"
         r="3.64"
         id="circle384" />
      <circle
         cx="142.86"
         cy="51.16"
         r="3.64"
         id="circle386" />
      <circle
         cx="156.89"
         cy="94.43"
         r="3.64"
         id="circle388" />
      <circle
         cx="147.48"
         cy="59.31"
         r="3.64"
         id="circle390" />
      <circle
         cx="138.06"
         cy="24.18"
         r="3.64"
         id="circle392" />
      <circle
         cx="137.24"
         cy="15.00"
         r="3.64"
         id="circle394" />
      <circle
         cx="142.70"
         cy="32.37"
         r="3.64"
         id="circle396" />
      <circle
         cx="152.10"
         cy="67.50"
         r="3.64"
         id="circle398" />
      <circle
         cx="147.33"
         cy="40.59"
         r="3.64"
         id="circle400" />
      <circle
         cx="156.74"
         cy="75.75"
         r="3.64"
         id="circle402" />
      <circle
         cx="151.98"
         cy="48.87"
         r="3.64"
         id="circle404" />
      <circle
         cx="147.23"
         cy="22.00"
         r="3.64"
         id="circle406" />
      <circle
         cx="146.60"
         cy="12.85"
         r="3.64"
         id="circle408" />
      <circle
         cx="161.38"
         cy="84.06"
         r="3.64"
         id="circle410" />
      <circle
         cx="156.64"
         cy="57.20"
         r="3.64"
         id="circle412" />
      <circle
         cx="151.90"
         cy="30.34"
         r="3.64"
         id="circle414" />
      <circle
         cx="165.52"
         cy="101.78"
         r="3.64"
         id="circle416" />
      <circle
         cx="156.57"
         cy="38.75"
         r="3.64"
         id="circle418" />
      <circle
         cx="161.30"
         cy="65.61"
         r="3.64"
         id="circle420" />
      <circle
         cx="166.03"
         cy="92.47"
         r="3.64"
         id="circle422" />
      <circle
         cx="156.51"
         cy="20.35"
         r="3.64"
         id="circle424" />
      <circle
         cx="156.07"
         cy="11.23"
         r="3.64"
         id="circle426" />
      <circle
         cx="161.24"
         cy="47.23"
         r="3.64"
         id="circle428" />
      <circle
         cx="165.97"
         cy="74.11"
         r="3.64"
         id="circle430" />
      <circle
         cx="161.20"
         cy="28.89"
         r="3.64"
         id="circle432" />
      <circle
         cx="165.93"
         cy="55.79"
         r="3.64"
         id="circle434" />
      <circle
         cx="165.90"
         cy="37.51"
         r="3.64"
         id="circle436" />
      <circle
         cx="170.65"
         cy="82.72"
         r="3.64"
         id="circle438" />
      <circle
         cx="165.88"
         cy="19.26"
         r="3.64"
         id="circle440" />
      <circle
         cx="165.61"
         cy="10.15"
         r="3.64"
         id="circle442" />
      <circle
         cx="170.62"
         cy="64.47"
         r="3.64"
         id="circle444" />
      <circle
         cx="170.60"
         cy="46.24"
         r="3.64"
         id="circle446" />
      <circle
         cx="170.58"
         cy="28.02"
         r="3.64"
         id="circle448" />
      <circle
         cx="175.15"
         cy="100.60"
         r="3.64"
         id="circle450" />
      <circle
         cx="175.33"
         cy="91.49"
         r="3.64"
         id="circle452" />
      <circle
         cx="175.31"
         cy="73.28"
         r="3.64"
         id="circle454" />
      <circle
         cx="175.30"
         cy="55.09"
         r="3.64"
         id="circle456" />
    </g>
    <g
       style="fill:#ffffff; stroke:none"
       id="PiS">
      <circle
         cx="175.29"
         cy="36.90"
         r="3.64"
         id="circle459" />
      <circle
         cx="175.29"
         cy="18.71"
         r="3.64"
         id="circle461" />
      <circle
         cx="175.20"
         cy="9.61"
         r="3.64"
         id="circle463" />
      <circle
         cx="180.00"
         cy="27.73"
         r="3.64"
         id="circle465" />
      <circle
         cx="180.00"
         cy="45.91"
         r="3.64"
         id="circle467" />
      <circle
         cx="180.00"
         cy="64.09"
         r="3.64"
         id="circle469" />
      <circle
         cx="180.00"
         cy="82.27"
         r="3.64"
         id="circle471" />
      <circle
         cx="184.80"
         cy="9.61"
         r="3.64"
         id="circle473" />
      <circle
         cx="184.71"
         cy="18.71"
         r="3.64"
         id="circle475" />
      <circle
         cx="184.71"
         cy="36.90"
         r="3.64"
         id="circle477" />
      <circle
         cx="184.70"
         cy="55.09"
         r="3.64"
         id="circle479" />
      <circle
         cx="184.69"
         cy="73.28"
         r="3.64"
         id="circle481" />
      <circle
         cx="184.67"
         cy="91.49"
         r="3.64"
         id="circle483" />
      <circle
         cx="184.85"
         cy="100.60"
         r="3.64"
         id="circle485" />
      <circle
         cx="189.42"
         cy="28.02"
         r="3.64"
         id="circle487" />
      <circle
         cx="189.40"
         cy="46.24"
         r="3.64"
         id="circle489" />
      <circle
         cx="189.38"
         cy="64.47"
         r="3.64"
         id="circle491" />
      <circle
         cx="194.39"
         cy="10.15"
         r="3.64"
         id="circle493" />
      <circle
         cx="194.12"
         cy="19.26"
         r="3.64"
         id="circle495" />
      <circle
         cx="189.35"
         cy="82.72"
         r="3.64"
         id="circle497" />
      <circle
         cx="194.10"
         cy="37.51"
         r="3.64"
         id="circle499" />
      <circle
         cx="194.07"
         cy="55.79"
         r="3.64"
         id="circle501" />
      <circle
         cx="198.80"
         cy="28.89"
         r="3.64"
         id="circle503" />
      <circle
         cx="194.03"
         cy="74.11"
         r="3.64"
         id="circle505" />
      <circle
         cx="198.76"
         cy="47.23"
         r="3.64"
         id="circle507" />
      <circle
         cx="203.93"
         cy="11.23"
         r="3.64"
         id="circle509" />
      <circle
         cx="203.49"
         cy="20.35"
         r="3.64"
         id="circle511" />
      <circle
         cx="193.97"
         cy="92.47"
         r="3.64"
         id="circle513" />
      <circle
         cx="198.70"
         cy="65.61"
         r="3.64"
         id="circle515" />
      <circle
         cx="203.43"
         cy="38.75"
         r="3.64"
         id="circle517" />
      <circle
         cx="194.48"
         cy="101.78"
         r="3.64"
         id="circle519" />
      <circle
         cx="208.10"
         cy="30.34"
         r="3.64"
         id="circle521" />
      <circle
         cx="203.36"
         cy="57.20"
         r="3.64"
         id="circle523" />
      <circle
         cx="198.62"
         cy="84.06"
         r="3.64"
         id="circle525" />
      <circle
         cx="213.40"
         cy="12.85"
         r="3.64"
         id="circle527" />
      <circle
         cx="212.77"
         cy="22.00"
         r="3.64"
         id="circle529" />
      <circle
         cx="208.02"
         cy="48.87"
         r="3.64"
         id="circle531" />
      <circle
         cx="203.26"
         cy="75.75"
         r="3.64"
         id="circle533" />
      <circle
         cx="212.67"
         cy="40.59"
         r="3.64"
         id="circle535" />
      <circle
         cx="207.90"
         cy="67.50"
         r="3.64"
         id="circle537" />
      <circle
         cx="217.30"
         cy="32.37"
         r="3.64"
         id="circle539" />
      <circle
         cx="222.76"
         cy="15.00"
         r="3.64"
         id="circle541" />
      <circle
         cx="221.94"
         cy="24.18"
         r="3.64"
         id="circle543" />
      <circle
         cx="212.52"
         cy="59.31"
         r="3.64"
         id="circle545" />
      <circle
         cx="203.11"
         cy="94.43"
         r="3.64"
         id="circle547" />
      <circle
         cx="217.14"
         cy="51.16"
         r="3.64"
         id="circle549" />
      <circle
         cx="207.72"
         cy="86.29"
         r="3.64"
         id="circle551" />
      <circle
         cx="221.76"
         cy="43.04"
         r="3.64"
         id="circle553" />
      <circle
         cx="203.89"
         cy="104.13"
         r="3.64"
         id="circle555" />
      <circle
         cx="212.32"
         cy="78.19"
         r="3.64"
         id="circle557" />
      <circle
         cx="226.36"
         cy="34.96"
         r="3.64"
         id="circle559" />
      <circle
         cx="231.98"
         cy="17.66"
         r="3.64"
         id="circle561" />
      <circle
         cx="230.96"
         cy="26.90"
         r="3.64"
         id="circle563" />
      <circle
         cx="216.91"
         cy="70.13"
         r="3.64"
         id="circle565" />
      <circle
         cx="221.50"
         cy="62.09"
         r="3.64"
         id="circle567" />
      <circle
         cx="226.08"
         cy="54.08"
         r="3.64"
         id="circle569" />
      <circle
         cx="230.67"
         cy="46.08"
         r="3.64"
         id="circle571" />
      <circle
         cx="241.04"
         cy="20.85"
         r="3.64"
         id="circle573" />
      <circle
         cx="211.99"
         cy="97.34"
         r="3.64"
         id="circle575" />
      <circle
         cx="235.24"
         cy="38.10"
         r="3.64"
         id="circle577" />
      <circle
         cx="239.82"
         cy="30.13"
         r="3.64"
         id="circle579" />
      <circle
         cx="216.56"
         cy="89.37"
         r="3.64"
         id="circle581" />
      <circle
         cx="221.12"
         cy="81.41"
         r="3.64"
         id="circle583" />
      <circle
         cx="225.68"
         cy="73.47"
         r="3.64"
         id="circle585" />
      <circle
         cx="230.24"
         cy="65.54"
         r="3.64"
         id="circle587" />
      <circle
         cx="234.80"
         cy="57.62"
         r="3.64"
         id="circle589" />
      <circle
         cx="249.91"
         cy="24.54"
         r="3.64"
         id="circle591" />
      <circle
         cx="212.95"
         cy="107.60"
         r="3.64"
         id="circle593" />
      <circle
         cx="239.36"
         cy="49.70"
         r="3.64"
         id="circle595" />
      <circle
         cx="243.91"
         cy="41.79"
         r="3.64"
         id="circle597" />
      <circle
         cx="248.47"
         cy="33.88"
         r="3.64"
         id="circle599" />
      <circle
         cx="220.52"
         cy="101.17"
         r="3.64"
         id="circle601" />
      <circle
         cx="258.55"
         cy="28.72"
         r="3.64"
         id="circle603" />
      <circle
         cx="225.06"
         cy="93.28"
         r="3.64"
         id="circle605" />
      <circle
         cx="229.61"
         cy="85.40"
         r="3.64"
         id="circle607" />
      <circle
         cx="234.15"
         cy="77.52"
         r="3.64"
         id="circle609" />
      <circle
         cx="238.70"
         cy="69.64"
         r="3.64"
         id="circle611" />
      <circle
         cx="243.25"
         cy="61.76"
         r="3.64"
         id="circle613" />
      <circle
         cx="247.79"
         cy="53.88"
         r="3.64"
         id="circle615" />
      <circle
         cx="252.34"
         cy="46.01"
         r="3.64"
         id="circle617" />
      <circle
         cx="256.88"
         cy="38.13"
         r="3.64"
         id="circle619" />
      <circle
         cx="266.94"
         cy="33.39"
         r="3.64"
         id="circle621" />
      <circle
         cx="221.51"
         cy="112.15"
         r="3.64"
         id="circle623" />
      <circle
         cx="265.03"
         cy="42.86"
         r="3.64"
         id="circle625" />
      <circle
         cx="260.48"
         cy="50.74"
         r="3.64"
         id="circle627" />
      <circle
         cx="255.93"
         cy="58.61"
         r="3.64"
         id="circle629" />
      <circle
         cx="251.38"
         cy="66.49"
         r="3.64"
         id="circle631" />
      <circle
         cx="246.83"
         cy="74.36"
         r="3.64"
         id="circle633" />
      <circle
         cx="242.27"
         cy="82.24"
         r="3.64"
         id="circle635" />
      <circle
         cx="237.71"
         cy="90.12"
         r="3.64"
         id="circle637" />
      <circle
         cx="233.16"
         cy="97.99"
         r="3.64"
         id="circle639" />
      <circle
         cx="228.59"
         cy="105.87"
         r="3.64"
         id="circle641" />
      <circle
         cx="275.06"
         cy="38.52"
         r="3.64"
         id="circle643" />
      <circle
         cx="272.90"
         cy="48.06"
         r="3.64"
         id="circle645" />
      <circle
         cx="268.32"
         cy="55.96"
         r="3.64"
         id="circle647" />
      <circle
         cx="263.74"
         cy="63.86"
         r="3.64"
         id="circle649" />
      <circle
         cx="259.16"
         cy="71.77"
         r="3.64"
         id="circle651" />
      <circle
         cx="254.57"
         cy="79.68"
         r="3.64"
         id="circle653" />
      <circle
         cx="282.88"
         cy="44.09"
         r="3.64"
         id="circle655" />
      <circle
         cx="249.98"
         cy="87.60"
         r="3.64"
         id="circle657" />
      <circle
         cx="245.37"
         cy="95.52"
         r="3.64"
         id="circle659" />
      <circle
         cx="240.76"
         cy="103.46"
         r="3.64"
         id="circle661" />
      <circle
         cx="229.46"
         cy="117.70"
         r="3.64"
         id="circle663" />
      <circle
         cx="280.44"
         cy="53.71"
         r="3.64"
         id="circle665" />
      <circle
         cx="275.82"
         cy="61.66"
         r="3.64"
         id="circle667" />
      <circle
         cx="236.13"
         cy="111.40"
         r="3.64"
         id="circle669" />
      <circle
         cx="271.20"
         cy="69.62"
         r="3.64"
         id="circle671" />
      <circle
         cx="266.56"
         cy="77.59"
         r="3.64"
         id="circle673" />
      <circle
         cx="290.37"
         cy="50.10"
         r="3.64"
         id="circle675" />
      <circle
         cx="261.90"
         cy="85.57"
         r="3.64"
         id="circle677" />
      <circle
         cx="257.23"
         cy="93.57"
         r="3.64"
         id="circle679" />
      <circle
         cx="287.65"
         cy="59.79"
         r="3.64"
         id="circle681" />
      <circle
         cx="282.96"
         cy="67.81"
         r="3.64"
         id="circle683" />
      <circle
         cx="252.53"
         cy="101.58"
         r="3.64"
         id="circle685" />
      <circle
         cx="278.25"
         cy="75.85"
         r="3.64"
         id="circle687" />
      <circle
         cx="297.51"
         cy="56.52"
         r="3.64"
         id="circle689" />
      <circle
         cx="247.81"
         cy="109.62"
         r="3.64"
         id="circle691" />
      <circle
         cx="273.52"
         cy="83.91"
         r="3.64"
         id="circle693" />
      <circle
         cx="294.48"
         cy="66.28"
         r="3.64"
         id="circle695" />
      <circle
         cx="268.76"
         cy="91.99"
         r="3.64"
         id="circle697" />
      <circle
         cx="243.04"
         cy="117.69"
         r="3.64"
         id="circle699" />
      <circle
         cx="236.68"
         cy="124.18"
         r="3.64"
         id="circle701" />
      <circle
         cx="289.70"
         cy="74.39"
         r="3.64"
         id="circle703" />
      <circle
         cx="263.97"
         cy="100.10"
         r="3.64"
         id="circle705" />
      <circle
         cx="304.28"
         cy="63.34"
         r="3.64"
         id="circle707" />
      <circle
         cx="284.88"
         cy="82.53"
         r="3.64"
         id="circle709" />
      <circle
         cx="259.13"
         cy="108.25"
         r="3.64"
         id="circle711" />
      <circle
         cx="280.03"
         cy="90.70"
         r="3.64"
         id="circle713" />
      <circle
         cx="300.93"
         cy="73.16"
         r="3.64"
         id="circle715" />
      <circle
         cx="254.23"
         cy="116.44"
         r="3.64"
         id="circle717" />
      <circle
         cx="275.13"
         cy="98.91"
         r="3.64"
         id="circle719" />
      <circle
         cx="296.02"
         cy="81.38"
         r="3.64"
         id="circle721" />
      <circle
         cx="310.65"
         cy="70.52"
         r="3.64"
         id="circle723" />
      <circle
         cx="291.06"
         cy="89.63"
         r="3.64"
         id="circle725" />
      <circle
         cx="270.16"
         cy="107.16"
         r="3.64"
         id="circle727" />
      <circle
         cx="249.25"
         cy="124.68"
         r="3.64"
         id="circle729" />
      <circle
         cx="306.96"
         cy="80.40"
         r="3.64"
         id="circle731" />
      <circle
         cx="286.04"
         cy="97.93"
         r="3.64"
         id="circle733" />
      <circle
         cx="243.05"
         cy="131.50"
         r="3.64"
         id="circle735" />
      <circle
         cx="265.12"
         cy="115.46"
         r="3.64"
         id="circle737" />
      <circle
         cx="301.90"
         cy="88.74"
         r="3.64"
         id="circle739" />
      <circle
         cx="316.61"
         cy="78.05"
         r="3.64"
         id="circle741" />
      <circle
         cx="280.95"
         cy="106.28"
         r="3.64"
         id="circle743" />
      <circle
         cx="296.76"
         cy="97.13"
         r="3.64"
         id="circle745" />
      <circle
         cx="259.97"
         cy="123.83"
         r="3.64"
         id="circle747" />
      <circle
         cx="312.56"
         cy="87.99"
         r="3.64"
         id="circle749" />
      <circle
         cx="275.76"
         cy="114.69"
         r="3.64"
         id="circle751" />
      <circle
         cx="291.54"
         cy="105.57"
         r="3.64"
         id="circle753" />
      <circle
         cx="322.13"
         cy="85.91"
         r="3.64"
         id="circle755" />
      <circle
         cx="307.31"
         cy="96.45"
         r="3.64"
         id="circle757" />
      <circle
         cx="254.69"
         cy="132.28"
         r="3.64"
         id="circle759" />
      <circle
         cx="270.45"
         cy="123.18"
         r="3.64"
         id="circle761" />
      <circle
         cx="286.20"
         cy="114.08"
         r="3.64"
         id="circle763" />
      <circle
         cx="301.95"
         cy="104.98"
         r="3.64"
         id="circle765" />
      <circle
         cx="317.70"
         cy="95.88"
         r="3.64"
         id="circle767" />
      <circle
         cx="248.48"
         cy="139.53"
         r="3.64"
         id="circle769" />
      <circle
         cx="327.20"
         cy="94.06"
         r="3.64"
         id="circle771" />
      <circle
         cx="312.23"
         cy="104.49"
         r="3.64"
         id="circle773" />
      <circle
         cx="296.48"
         cy="113.57"
         r="3.64"
         id="circle775" />
      <circle
         cx="280.73"
         cy="122.66"
         r="3.64"
         id="circle777" />
      <circle
         cx="264.98"
         cy="131.74"
         r="3.64"
         id="circle779" />
      <circle
         cx="322.38"
         cy="104.07"
         r="3.64"
         id="circle781" />
      <circle
         cx="306.62"
         cy="113.16"
         r="3.64"
         id="circle783" />
      <circle
         cx="290.86"
         cy="122.24"
         r="3.64"
         id="circle785" />
      <circle
         cx="275.08"
         cy="131.33"
         r="3.64"
         id="circle787" />
      <circle
         cx="331.81"
         cy="102.49"
         r="3.64"
         id="circle789" />
      <circle
         cx="259.30"
         cy="140.41"
         r="3.64"
         id="circle791" />
      <circle
         cx="316.65"
         cy="112.81"
         r="3.64"
         id="circle793" />
      <circle
         cx="300.85"
         cy="121.90"
         r="3.64"
         id="circle795" />
      <circle
         cx="285.04"
         cy="131.00"
         r="3.64"
         id="circle797" />
      <circle
         cx="326.57"
         cy="112.51"
         r="3.64"
         id="circle799" />
      <circle
         cx="269.21"
         cy="140.10"
         r="3.64"
         id="circle801" />
      <circle
         cx="310.74"
         cy="121.62"
         r="3.64"
         id="circle803" />
      <circle
         cx="335.93"
         cy="111.16"
         r="3.64"
         id="circle805" />
      <circle
         cx="252.90"
         cy="148.17"
         r="3.64"
         id="circle807" />
      <circle
         cx="294.88"
         cy="130.73"
         r="3.64"
         id="circle809" />
      <circle
         cx="320.54"
         cy="121.38"
         r="3.64"
         id="circle811" />
      <circle
         cx="278.99"
         cy="139.85"
         r="3.64"
         id="circle813" />
      <circle
         cx="304.63"
         cy="130.52"
         r="3.64"
         id="circle815" />
      <circle
         cx="330.26"
         cy="121.18"
         r="3.64"
         id="circle817" />
      <circle
         cx="339.56"
         cy="120.05"
         r="3.64"
         id="circle819" />
      <circle
         cx="263.03"
         cy="148.98"
         r="3.64"
         id="circle821" />
      <circle
         cx="288.66"
         cy="139.66"
         r="3.64"
         id="circle823" />
      <circle
         cx="314.29"
         cy="130.34"
         r="3.64"
         id="circle825" />
      <circle
         cx="323.89"
         cy="130.19"
         r="3.64"
         id="circle827" />
      <circle
         cx="298.26"
         cy="139.51"
         r="3.64"
         id="circle829" />
      <circle
         cx="272.62"
         cy="148.82"
         r="3.64"
         id="circle831" />
      <circle
         cx="333.44"
         cy="130.06"
         r="3.64"
         id="circle833" />
      <circle
         cx="307.79"
         cy="139.38"
         r="3.64"
         id="circle835" />
      <circle
         cx="342.69"
         cy="129.13"
         r="3.64"
         id="circle837" />
      <circle
         cx="282.13"
         cy="148.69"
         r="3.64"
         id="circle839" />
      <circle
         cx="256.23"
         cy="157.28"
         r="3.64"
         id="circle841" />
      <circle
         cx="317.27"
         cy="139.27"
         r="3.64"
         id="circle843" />
      <circle
         cx="291.57"
         cy="148.59"
         r="3.64"
         id="circle845" />
      <circle
         cx="326.70"
         cy="139.18"
         r="3.64"
         id="circle847" />
      <circle
         cx="336.10"
         cy="139.10"
         r="3.64"
         id="circle849" />
      <circle
         cx="300.97"
         cy="148.51"
         r="3.64"
         id="circle851" />
      <circle
         cx="265.84"
         cy="157.90"
         r="3.64"
         id="circle853" />
      <circle
         cx="345.29"
         cy="138.37"
         r="3.64"
         id="circle855" />
      <circle
         cx="310.32"
         cy="148.44"
         r="3.64"
         id="circle857" />
      <circle
         cx="275.18"
         cy="157.83"
         r="3.64"
         id="circle859" />
      <circle
         cx="319.65"
         cy="148.38"
         r="3.64"
         id="circle861" />
      <circle
         cx="284.48"
         cy="157.77"
         r="3.64"
         id="circle863" />
      <circle
         cx="328.94"
         cy="148.33"
         r="3.64"
         id="circle865" />
      <circle
         cx="338.22"
         cy="148.29"
         r="3.64"
         id="circle867" />
      <circle
         cx="293.75"
         cy="157.72"
         r="3.64"
         id="circle869" />
      <circle
         cx="347.38"
         cy="147.75"
         r="3.64"
         id="circle871" />
      <circle
         cx="302.99"
         cy="157.68"
         r="3.64"
         id="circle873" />
      <circle
         cx="258.43"
         cy="166.72"
         r="3.64"
         id="circle875" />
      <circle
         cx="312.22"
         cy="157.65"
         r="3.64"
         id="circle877" />
      <circle
         cx="321.42"
         cy="157.62"
         r="3.64"
         id="circle879" />
      <circle
         cx="330.62"
         cy="157.60"
         r="3.64"
         id="circle881" />
      <circle
         cx="267.69"
         cy="167.06"
         r="3.64"
         id="circle883" />
      <circle
         cx="339.80"
         cy="157.58"
         r="3.64"
         id="circle885" />
      <circle
         cx="348.93"
         cy="157.22"
         r="3.64"
         id="circle887" />
      <circle
         cx="276.86"
         cy="167.04"
         r="3.64"
         id="circle889" />
      <circle
         cx="286.03"
         cy="167.02"
         r="3.64"
         id="circle891" />
      <circle
         cx="295.18"
         cy="167.00"
         r="3.64"
         id="circle893" />
      <circle
         cx="304.32"
         cy="166.99"
         r="3.64"
         id="circle895" />
      <circle
         cx="313.46"
         cy="166.98"
         r="3.64"
         id="circle897" />
      <circle
         cx="322.59"
         cy="166.97"
         r="3.64"
         id="circle899" />
      <circle
         cx="331.71"
         cy="166.96"
         r="3.64"
         id="circle901" />
      <circle
         cx="340.84"
         cy="166.95"
         r="3.64"
         id="circle903" />
      <circle
         cx="349.94"
         cy="166.77"
         r="3.64"
         id="circle905" />
      <circle
         cx="259.46"
         cy="176.37"
         r="3.64"
         id="circle907" />
      <circle
         cx="268.56"
         cy="176.37"
         r="3.64"
         id="circle909" />
      <circle
         cx="277.66"
         cy="176.37"
         r="3.64"
         id="circle911" />
      <circle
         cx="286.76"
         cy="176.37"
         r="3.64"
         id="circle913" />
      <circle
         cx="295.85"
         cy="176.36"
         r="3.64"
         id="circle915" />
      <circle
         cx="304.95"
         cy="176.36"
         r="3.64"
         id="circle917" />
      <circle
         cx="314.04"
         cy="176.36"
         r="3.64"
         id="circle919" />
      <circle
         cx="323.14"
         cy="176.36"
         r="3.64"
         id="circle921" />
      <circle
         cx="332.23"
         cy="176.36"
         r="3.64"
         id="circle923" />
      <circle
         cx="341.32"
         cy="176.36"
         r="3.64"
         id="circle925" />
      <circle
         cx="350.42"
         cy="176.36"
         r="3.64"
         id="circle927" />
    </g>
  </g>
</svg>
