<svg xmlns="http://www.w3.org/2000/svg" width="300" height="200" viewBox="0 0 300 200" version="1.1"><path d="M 137.497 47.410 C 124.382 51.735, 111.922 60.480, 106.736 69 C 105.564 70.925, 104.356 72.725, 104.052 73 C 96.655 79.680, 95.185 107.925, 101.607 119.988 C 102.923 122.461, 104 124.821, 104 125.233 C 104 125.872, 110.209 134.514, 111.735 136 C 112.017 136.275, 111.938 135.490, 111.559 134.256 C 111.024 132.517, 111.205 132.141, 112.362 132.585 C 113.235 132.920, 113.688 134.022, 113.454 135.238 C 113.069 137.240, 115.367 139.918, 117.500 139.953 C 118.050 139.962, 117.825 139.492, 117 138.909 C 115.667 137.966, 115.667 137.896, 117 138.278 C 117.825 138.514, 118.398 139.336, 118.273 140.104 C 118.148 140.872, 119.683 142.564, 121.683 143.864 C 125.876 146.590, 139 151.283, 139 150.057 C 139 149.604, 138.007 148.974, 136.794 148.656 C 132.401 147.508, 135.655 147.264, 142.328 148.242 C 148.847 149.198, 149.856 150.182, 145.500 151.336 C 144.400 151.627, 147.325 151.627, 152 151.336 C 158.599 150.924, 160.900 150.380, 162.289 148.903 C 164.338 146.724, 165.660 146.481, 166.227 148.180 C 166.468 148.903, 167.361 149.075, 168.532 148.626 C 170.143 148.008, 170.212 147.746, 168.972 146.962 C 167.737 146.180, 167.781 146.028, 169.250 146.015 C 170.213 146.007, 171 145.550, 171 145 C 171 144.450, 171.505 144, 172.122 144 C 172.898 144, 172.860 144.464, 172 145.500 C 170.261 147.596, 171.309 147.384, 177.036 144.482 C 179.770 143.097, 182.563 141.072, 183.244 139.982 C 183.924 138.892, 184.994 138, 185.620 138 C 187.011 138, 194.448 128.316, 195.428 125.228 C 195.817 124.003, 196.489 123, 196.922 123 C 198.812 123, 202.364 107.364, 202.373 99 C 202.382 90.169, 198.782 75.399, 196.903 76.560 C 196.406 76.867, 196 76.357, 196 75.427 C 196 72.782, 191.854 66.619, 191.002 67.997 C 190.603 68.643, 189.884 69.245, 189.405 69.335 C 188.925 69.426, 188.680 70.367, 188.859 71.426 C 189.169 73.254, 189.059 73.269, 186.690 71.717 C 184.331 70.171, 184.382 70.392, 187.632 75.789 C 189.522 78.927, 191.552 83.297, 192.144 85.498 C 192.736 87.699, 193.612 90.400, 194.092 91.500 C 194.571 92.600, 194.905 94.898, 194.834 96.606 C 194.762 98.314, 195.022 100.227, 195.411 100.856 C 195.800 101.485, 195.641 102, 195.059 102 C 194.477 102, 194.086 102.338, 194.192 102.750 C 195.175 106.601, 188.815 122.440, 184.434 127.049 C 183.101 128.451, 181.916 130.748, 181.799 132.153 C 181.643 134.041, 181.055 134.672, 179.544 134.574 C 178.420 134.501, 175.458 135.624, 172.961 137.070 C 160.662 144.194, 130 145.765, 130 139.271 C 130 138.572, 129.502 138, 128.893 138 C 128.284 138, 128.036 138.652, 128.342 139.449 C 128.716 140.423, 128.418 140.714, 127.431 140.335 C 126.625 140.026, 126.085 139.083, 126.232 138.240 C 126.380 137.397, 125.875 136.490, 125.111 136.224 C 124.264 135.929, 123.994 136.182, 124.420 136.870 C 124.804 137.492, 124.685 138, 124.157 138 C 123.628 138, 122.723 136.644, 122.145 134.987 C 121.568 133.330, 120.383 131.700, 119.513 131.366 C 117.932 130.760, 112.832 124.051, 110 118.853 C 109.175 117.338, 108.050 116.077, 107.500 116.049 C 103.261 115.836, 106.690 84.135, 111.761 76.662 C 116.908 69.076, 117.658 65, 113.906 65 C 113.343 65, 113.203 65.520, 113.595 66.155 C 114.038 66.871, 113.870 67.038, 113.152 66.594 C 111.397 65.509, 113.629 61.920, 115.590 62.673 C 116.697 63.098, 117.056 62.754, 116.825 61.490 C 116.331 58.779, 118.882 58.508, 119.868 61.166 C 120.583 63.097, 120.327 63.673, 118.385 64.500 C 116.637 65.245, 116.276 65.878, 116.972 66.982 C 118.158 68.866, 124.158 63.574, 123.318 61.385 C 123.025 60.623, 123.311 60, 123.952 60 C 124.593 60, 124.793 60.526, 124.395 61.170 C 123.902 61.968, 124.227 62.127, 125.418 61.670 C 126.378 61.301, 127.352 61, 127.582 61 C 127.812 61, 128 60.277, 128 59.393 C 128 58.314, 128.539 57.993, 129.641 58.416 C 130.939 58.914, 131.045 58.760, 130.150 57.681 C 128.623 55.841, 129.938 54.703, 131.802 56.251 C 133.069 57.302, 133.192 57.116, 132.639 54.992 C 131.991 52.507, 131.993 52.506, 133.166 54.791 C 133.932 56.283, 134.893 56.870, 135.921 56.472 C 142.497 53.930, 155.583 53.765, 161.872 56.145 C 163.176 56.639, 164.751 56.668, 165.372 56.210 C 167.753 54.453, 175.247 57.544, 179.755 62.144 C 181.265 63.684, 182.900 64.957, 183.390 64.972 C 183.879 64.987, 184.920 65.787, 185.703 66.750 C 186.738 68.023, 187.267 68.160, 187.646 67.250 C 187.932 66.563, 188.915 66, 189.830 66 C 190.875 66, 189.266 63.876, 185.496 60.281 C 173.474 48.815, 151.281 42.864, 137.497 47.410 M 142.106 83.264 C 126.003 91.459, 131.274 117, 149.068 117 C 154.675 117, 157.243 116.202, 156.340 114.741 C 155.967 114.137, 156.170 113.987, 156.817 114.387 C 160.835 116.870, 168.481 105.356, 167.765 97.902 C 166.500 84.741, 153.630 77.399, 142.106 83.264" stroke="none" fill="#f7f7f8" fill-rule="evenodd"/><path d="M 139.500 57.409 C 107.619 65.309, 96.452 104.566, 119.234 128.654 C 143.688 154.510, 186.342 140.964, 192.223 105.473 C 197.158 75.691, 169.068 50.083, 139.500 57.409 M 139.742 82.948 C 128.791 89.894, 127.774 105.722, 137.751 113.946 C 150.347 124.329, 168.934 115.487, 168.984 99.088 C 169.030 83.857, 152.604 74.792, 139.742 82.948" stroke="none" fill="#269bc7" fill-rule="evenodd"/><path d="M 138.500 45.929 C 136.850 46.327, 134.375 47.257, 133 47.995 C 131.625 48.734, 130.275 49.282, 130 49.215 C 129.725 49.147, 127.155 50.201, 124.288 51.557 C 116.838 55.081, 99.807 73, 103.907 73 C 104.434 73, 105.178 72.014, 105.560 70.810 C 109.437 58.595, 134.985 45.276, 152.727 46.220 C 166.073 46.930, 201.844 66, 189.830 66 C 188.915 66, 187.932 66.563, 187.646 67.250 C 187.267 68.160, 186.738 68.023, 185.703 66.750 C 184.920 65.787, 183.879 64.987, 183.390 64.972 C 182.900 64.957, 181.265 63.684, 179.755 62.144 C 175.247 57.544, 167.753 54.453, 165.372 56.210 C 164.751 56.668, 163.176 56.639, 161.872 56.145 C 155.583 53.765, 142.497 53.930, 135.921 56.472 C 134.893 56.870, 133.932 56.283, 133.166 54.791 C 131.993 52.506, 131.991 52.507, 132.639 54.992 C 133.192 57.116, 133.069 57.302, 131.802 56.251 C 129.938 54.703, 128.623 55.841, 130.150 57.681 C 131.045 58.760, 130.939 58.914, 129.641 58.416 C 128.569 58.004, 128 58.306, 128 59.286 C 128 60.111, 127.288 61.059, 126.418 61.393 C 124.209 62.241, 123.787 62.154, 124.500 61 C 124.840 60.450, 124.593 60, 123.952 60 C 123.311 60, 123.025 60.623, 123.318 61.385 C 124.158 63.574, 118.158 68.866, 116.972 66.982 C 116.276 65.878, 116.637 65.245, 118.385 64.500 C 120.327 63.673, 120.583 63.097, 119.868 61.166 C 118.882 58.508, 116.331 58.779, 116.825 61.490 C 117.056 62.754, 116.697 63.098, 115.590 62.673 C 113.629 61.920, 111.397 65.509, 113.152 66.594 C 113.870 67.038, 114.038 66.871, 113.595 66.155 C 113.203 65.520, 113.343 65, 113.906 65 C 117.658 65, 116.908 69.076, 111.761 76.662 C 106.867 83.875, 103.125 116.995, 107.345 115.749 C 107.810 115.612, 108.935 116.874, 109.845 118.553 C 112.789 123.984, 117.889 130.743, 119.513 131.366 C 120.383 131.700, 121.568 133.330, 122.145 134.987 C 122.723 136.644, 123.628 138, 124.157 138 C 124.685 138, 124.804 137.492, 124.420 136.870 C 123.994 136.182, 124.264 135.929, 125.111 136.224 C 125.875 136.490, 126.380 137.397, 126.232 138.240 C 126.085 139.083, 126.625 140.026, 127.431 140.335 C 128.418 140.714, 128.716 140.423, 128.342 139.449 C 128.036 138.652, 128.284 138, 128.893 138 C 129.502 138, 130 138.572, 130 139.271 C 130 145.765, 160.662 144.194, 172.961 137.070 C 175.458 135.624, 178.420 134.501, 179.544 134.574 C 181.055 134.672, 181.643 134.041, 181.799 132.153 C 181.916 130.748, 183.101 128.451, 184.434 127.049 C 188.815 122.440, 195.175 106.601, 194.192 102.750 C 194.086 102.338, 194.477 102, 195.059 102 C 195.641 102, 195.800 101.485, 195.411 100.856 C 195.022 100.227, 194.762 98.314, 194.834 96.606 C 194.905 94.898, 194.571 92.600, 194.092 91.500 C 193.612 90.400, 192.736 87.699, 192.144 85.498 C 191.552 83.297, 189.522 78.927, 187.632 75.789 C 184.382 70.392, 184.331 70.171, 186.690 71.717 C 189.059 73.269, 189.169 73.254, 188.859 71.426 C 188.680 70.367, 188.925 69.426, 189.405 69.335 C 189.884 69.245, 190.603 68.643, 191.002 67.997 C 191.854 66.619, 196 72.782, 196 75.427 C 196 76.409, 196.464 76.831, 197.107 76.434 C 197.852 75.973, 198.019 76.527, 197.616 78.125 C 197.288 79.431, 197.302 79.863, 197.648 79.084 C 199.010 76.019, 202.207 89.370, 202.297 98.500 C 202.384 107.355, 198.952 123, 196.922 123 C 196.489 123, 195.817 124.003, 195.428 125.228 C 194.448 128.316, 187.011 138, 185.620 138 C 184.994 138, 183.924 138.892, 183.244 139.982 C 182.563 141.072, 179.770 143.097, 177.036 144.482 C 171.309 147.384, 170.261 147.596, 172 145.500 C 172.860 144.464, 172.898 144, 172.122 144 C 171.505 144, 171 144.450, 171 145 C 171 145.550, 170.213 146.007, 169.250 146.015 C 167.781 146.028, 167.737 146.180, 168.972 146.962 C 170.212 147.746, 170.143 148.008, 168.532 148.626 C 167.361 149.075, 166.468 148.903, 166.227 148.180 C 165.660 146.481, 164.338 146.724, 162.289 148.903 C 160.900 150.380, 158.599 150.924, 152 151.336 C 147.325 151.627, 144.400 151.627, 145.500 151.336 C 149.856 150.182, 148.847 149.198, 142.328 148.242 C 135.655 147.264, 132.401 147.508, 136.794 148.656 C 138.007 148.974, 139 149.604, 139 150.057 C 139 151.283, 125.876 146.590, 121.683 143.864 C 119.683 142.564, 118.148 140.825, 118.273 140 C 118.398 139.175, 117.825 138.439, 117 138.365 C 116.175 138.291, 114.929 138.179, 114.230 138.115 C 113.449 138.044, 113.130 137.067, 113.400 135.576 C 113.679 134.040, 113.296 132.944, 112.355 132.583 C 111.206 132.142, 111.026 132.521, 111.559 134.256 C 111.938 135.490, 112.017 136.275, 111.735 136 C 110.209 134.514, 104 125.872, 104 125.233 C 104 124.821, 102.923 122.461, 101.607 119.988 C 96.159 109.755, 95.899 88.698, 101.096 78.630 C 102.194 76.501, 102.925 74.592, 102.720 74.387 C 101.552 73.218, 97.611 84.353, 96.716 91.352 C 90.114 142.995, 149.768 173.652, 187.123 137.814 C 216.896 109.250, 207.183 64.769, 167.500 47.942 C 160.870 45.131, 146.065 44.103, 138.500 45.929 M 139.500 57.409 C 107.619 65.309, 96.452 104.566, 119.234 128.654 C 143.688 154.510, 186.342 140.964, 192.223 105.473 C 197.158 75.691, 169.068 50.083, 139.500 57.409 M 139.742 82.948 C 128.791 89.894, 127.774 105.722, 137.751 113.946 C 150.347 124.329, 168.934 115.487, 168.984 99.088 C 169.030 83.857, 152.604 74.792, 139.742 82.948 M 142.106 83.264 C 126.003 91.459, 131.274 117, 149.068 117 C 154.675 117, 157.243 116.202, 156.340 114.741 C 155.967 114.137, 156.170 113.987, 156.817 114.387 C 160.835 116.870, 168.481 105.356, 167.765 97.902 C 166.500 84.741, 153.630 77.399, 142.106 83.264" stroke="none" fill="#f7f6f7" fill-rule="evenodd"/><path d="M 142.500 33.649 C 103.985 36.260, 60.708 58.683, 28.250 92.845 C 23.070 98.297, 23.049 98.735, 27.750 103.740 C 45.773 122.929, 73.067 141.906, 99.196 153.415 C 150.524 176.022, 210.813 159.479, 264.250 108.124 C 274.854 97.933, 274.823 99.114, 264.750 89.393 C 225.812 51.816, 180.344 31.083, 142.500 33.649 M 139.500 44.685 C 136.160 45.114, 135.451 45.386, 125.500 50.052 C 115.850 54.577, 105.754 64.786, 100.828 75 C 74.049 130.531, 144.627 181.304, 188.202 137.856 C 226.850 99.321, 194.592 37.607, 139.500 44.685" stroke="none" fill="#000000" fill-rule="evenodd"/></svg>