<?xml version="1.0" standalone="no"?>
<!DOCTYPE svg PUBLIC "-//W3C//DTD SVG 20010904//EN"
 "http://www.w3.org/TR/2001/REC-SVG-20010904/DTD/svg10.dtd">
<svg version="1.0" xmlns="http://www.w3.org/2000/svg"
 width="600.000000pt" height="800.000000pt" viewBox="0 0 600.000000 800.000000"
 preserveAspectRatio="xMidYMid meet">

<g transform="translate(0.000000,800.000000) scale(0.100000,-0.100000)"
fill="#000000" stroke="none">
<path d="M3620 7571 c0 -5 -10 -11 -22 -13 -16 -2 -27 -15 -37 -43 -8 -22 -38
-80 -66 -130 -28 -49 -61 -112 -74 -140 -13 -27 -47 -90 -75 -140 -29 -49 -76
-133 -105 -186 -49 -89 -106 -174 -164 -244 -13 -16 -66 -93 -117 -170 -76
-113 -223 -311 -250 -335 -3 -3 -34 -39 -69 -80 -61 -71 -210 -236 -278 -307
-17 -18 -62 -67 -99 -108 l-67 -75 -626 -2 -626 -3 -57 -23 c-121 -49 -231
-159 -280 -280 l-23 -57 -3 -2180 c-2 -2171 -2 -2180 18 -2241 26 -77 63 -136
126 -197 58 -58 110 -90 189 -117 57 -20 83 -20 1905 -20 1822 0 1848 0 1905
20 82 28 132 59 194 121 62 62 93 112 121 194 20 57 20 82 20 2225 0 2099 -1
2169 -19 2222 -26 76 -43 106 -94 169 l-45 55 20 24 c50 63 89 102 168 171 47
40 87 76 90 79 3 3 41 39 85 79 44 41 173 165 287 275 114 110 213 203 220
208 7 4 25 8 39 8 28 0 52 27 101 117 50 91 75 230 49 271 -10 17 -103 43
-281 81 -177 38 -386 108 -535 180 -168 81 -214 101 -228 101 -14 0 -138 50
-212 86 -28 13 -55 24 -62 24 -6 0 -60 21 -119 46 -98 41 -165 67 -304 118
-25 10 -85 36 -135 60 -49 24 -117 54 -150 66 -33 13 -67 29 -75 35 -49 40
-117 65 -177 65 -35 0 -63 -4 -63 -9z m101 -154 c13 -7 35 -20 49 -28 14 -9
59 -29 100 -44 41 -16 91 -38 110 -50 37 -23 292 -125 311 -125 6 0 26 -8 43
-19 17 -10 76 -35 131 -55 55 -20 118 -45 140 -55 22 -10 74 -31 115 -46 41
-16 79 -32 85 -37 5 -4 16 -8 24 -8 19 0 216 -87 261 -116 42 -27 370 -137
455 -153 122 -24 275 -65 275 -76 0 -26 -32 -55 -61 -55 -21 0 -32 -6 -38 -23
-22 -58 -385 -417 -721 -712 -25 -22 -49 -46 -53 -52 -4 -7 -15 -13 -22 -13
-8 0 -15 -3 -15 -7 0 -5 -23 -33 -51 -63 -28 -30 -62 -70 -76 -87 -14 -18 -31
-33 -37 -33 -7 0 -23 -15 -36 -32 -13 -18 -29 -37 -37 -41 -7 -4 -13 -14 -13
-21 0 -8 -9 -16 -21 -19 -12 -3 -18 -10 -14 -16 3 -6 2 -11 -3 -11 -5 0 -30
-31 -55 -68 -25 -38 -53 -75 -62 -82 -8 -7 -15 -18 -15 -24 0 -6 -25 -43 -56
-81 -31 -39 -61 -82 -66 -97 -5 -16 -16 -28 -24 -28 -8 0 -14 -5 -14 -11 0 -6
-9 -23 -20 -39 -11 -15 -17 -30 -13 -33 3 -4 -28 -51 -69 -105 -41 -54 -90
-125 -108 -158 -19 -32 -48 -79 -65 -104 -38 -55 -157 -245 -175 -280 -26 -50
-173 -266 -205 -300 -17 -19 -47 -56 -65 -82 -18 -26 -39 -49 -47 -52 -17 -7
-83 26 -218 107 -202 122 -327 211 -512 364 -44 38 -125 104 -180 147 -158
128 -473 453 -451 468 9 5 10 10 3 16 -6 4 -22 23 -35 42 -13 19 -35 49 -49
66 -22 26 -56 78 -69 107 -2 4 3 7 12 7 9 0 16 6 16 13 0 6 18 32 40 57 22 25
40 51 40 58 0 6 5 12 11 12 14 0 209 202 209 216 0 7 9 14 21 17 12 3 19 12
17 19 -3 7 0 18 6 24 83 84 332 360 377 419 13 17 33 39 44 51 11 11 29 33 40
48 11 16 25 33 31 40 24 26 124 166 164 231 42 67 67 102 111 154 38 45 166
244 209 326 24 44 53 96 65 115 20 32 145 267 203 383 14 26 26 47 27 47 2 0
13 -6 26 -13z m-1661 -2521 c75 -106 354 -400 448 -473 28 -21 105 -83 172
-138 259 -213 280 -228 458 -342 126 -80 255 -155 315 -183 26 -12 50 -26 53
-31 3 -5 31 -9 63 -9 52 0 60 3 88 33 16 17 43 50 59 72 16 22 47 63 70 90 46
56 191 273 242 363 18 32 70 115 115 184 45 70 98 152 117 184 19 31 59 86 88
121 28 36 52 70 52 76 0 8 3 8 10 1 7 -7 10 -185 8 -540 -3 -583 0 -556 -66
-601 -26 -17 -93 -18 -1532 -18 -1439 0 -1506 1 -1532 18 -15 10 -35 30 -45
45 -17 25 -18 62 -18 573 l0 546 28 36 c16 21 42 41 60 46 18 5 183 10 367 10
l335 1 45 -64z m-257 -1889 c53 -40 59 -75 55 -311 -3 -219 -7 -232 -66 -273
-24 -16 -51 -18 -252 -18 -246 0 -255 2 -297 63 -16 24 -18 51 -18 253 l0 226
28 36 c15 20 42 41 60 46 18 6 127 9 243 8 l211 -2 36 -28z m1280 0 c53 -40
59 -75 55 -311 -3 -219 -7 -232 -66 -273 -24 -16 -51 -18 -252 -18 -246 0
-255 2 -297 63 -16 24 -18 51 -18 253 l0 226 28 36 c15 20 42 41 60 46 18 6
127 9 243 8 l211 -2 36 -28z m1280 0 c24 -18 40 -41 47 -67 7 -26 10 -314 8
-882 -3 -796 -4 -844 -21 -870 -42 -61 -51 -63 -297 -63 -246 0 -255 2 -297
63 -17 26 -18 72 -18 893 l0 866 28 36 c15 20 42 41 60 46 18 6 127 9 243 8
l211 -2 36 -28z m-2560 -1280 c53 -40 59 -75 55 -311 -3 -219 -7 -232 -66
-273 -24 -16 -51 -18 -252 -18 -246 0 -255 2 -297 63 -16 24 -18 51 -18 253
l0 226 28 36 c15 20 42 41 60 46 18 6 127 9 243 8 l211 -2 36 -28z m1280 0
c53 -40 59 -75 55 -311 -3 -219 -7 -232 -66 -273 -24 -16 -51 -18 -252 -18
-246 0 -255 2 -297 63 -16 24 -18 51 -18 253 l0 226 28 36 c15 20 42 41 60 46
18 6 127 9 243 8 l211 -2 36 -28z"/>
<path d="M4415 6188 c-11 -6 -25 -19 -31 -27 -41 -57 -152 -183 -248 -281 -62
-63 -156 -170 -209 -237 -154 -193 -451 -513 -476 -513 -14 0 -36 188 -35 310
1 160 22 428 39 503 19 85 -3 159 -57 188 -37 20 -101 15 -136 -10 -66 -46
-101 -274 -83 -531 5 -74 7 -139 5 -145 -6 -14 61 -414 77 -464 23 -73 39
-100 66 -114 34 -17 134 -28 176 -20 41 8 116 85 197 201 83 118 140 193 213
279 32 37 104 129 160 203 56 74 142 176 192 226 291 294 311 321 280 387 -24
51 -83 72 -130 45z"/>
</g>
</svg>
